<svg width="34" height="34" viewBox="0 0 34 34" fill="none" xmlns="http://www.w3.org/2000/svg">
<path d="M15.1243 2.06901C15.7686 0.327778 18.2314 0.327776 18.8757 2.06901L22.0827 10.7357C22.2852 11.2831 22.7169 11.7148 23.2643 11.9173L31.931 15.1243C33.6722 15.7686 33.6722 18.2314 31.931 18.8757L23.2643 22.0827C22.7169 22.2852 22.2852 22.7169 22.0827 23.2643L18.8757 31.931C18.2314 33.6722 15.7686 33.6722 15.1243 31.931L11.9173 23.2643C11.7148 22.7169 11.2831 22.2852 10.7357 22.0827L2.06901 18.8757C0.327778 18.2314 0.327776 15.7686 2.06901 15.1243L10.7357 11.9173C11.2831 11.7148 11.7148 11.2831 11.9173 10.7357L15.1243 2.06901Z" fill="#F2D4A0"/>
</svg>
